<svg width="75" height="75" viewBox="0 0 75 75" fill="none" xmlns="http://www.w3.org/2000/svg">
<rect x="1.50977" y="1.96875" width="71.6986" height="71.6986" stroke="#19191C" stroke-width="2"/>
<g clip-path="url(#clip0_5_1465)">
<path d="M52.4566 59.6548C51.5144 59.6548 50.7506 58.891 50.7506 57.9488C50.7506 51.2699 45.317 45.8363 38.6381 45.8363H36.0792C29.4003 45.8363 23.9667 51.2699 23.9667 57.9488C23.9667 58.891 23.2029 59.6548 22.2607 59.6548C21.3185 59.6548 20.5547 58.891 20.5547 57.9488C20.5547 49.3886 27.5189 42.4243 36.0792 42.4243H38.6381C47.1983 42.4243 54.1626 49.3886 54.1626 57.9488C54.1626 58.891 53.3988 59.6548 52.4566 59.6548Z" fill="#19191C"/>
<path d="M37.1883 39.0123C30.8387 39.0123 25.6729 33.8464 25.6729 27.4969C25.6729 21.1473 30.8387 15.9814 37.1883 15.9814C43.5379 15.9814 48.7037 21.1473 48.7037 27.4969C48.7037 33.8464 43.5379 39.0123 37.1883 39.0123ZM37.1883 19.3934C32.72 19.3934 29.0848 23.0286 29.0848 27.4969C29.0848 31.9651 32.72 35.6003 37.1883 35.6003C41.6565 35.6003 45.2917 31.9651 45.2917 27.4969C45.2917 23.0286 41.6565 19.3934 37.1883 19.3934Z" fill="#19191C"/>
</g>
<defs>
<clipPath id="clip0_5_1465">
<rect width="43.6732" height="43.6732" fill="white" transform="translate(15.5225 15.9814)"/>
</clipPath>
</defs>
</svg>
