<svg width="56" height="56" viewBox="0 0 56 56" fill="none" xmlns="http://www.w3.org/2000/svg">
<path d="M55.125 28C55.125 13.0156 42.9844 0.875 28 0.875C13.0156 0.875 0.875 13.0156 0.875 28C0.875 42.9844 13.0156 55.125 28 55.125C42.9844 55.125 55.125 42.9844 55.125 28ZM28 51.625C15.0172 51.625 4.375 41.1141 4.375 28C4.375 15.0172 14.8859 4.375 28 4.375C40.9828 4.375 51.625 14.8859 51.625 28C51.625 40.9828 41.1141 51.625 28 51.625ZM31.5 38.5L21 28L31.5 17.5V38.5ZM35 17.5C35 14.3938 31.2266 12.8187 29.0281 15.0281L18.5281 25.5281C17.1609 26.8953 17.1609 29.1156 18.5281 30.4828L29.0281 40.9828C31.2266 43.1813 35 41.6281 35 38.5109V17.5Z" fill="black"/>
</svg>
